<?xml version="1.0" encoding="utf-8"?>
<!-- Generator: Adobe Illustrator 16.0.0, SVG Export Plug-In . SVG Version: 6.00 Build 0)  -->
<!DOCTYPE svg PUBLIC "-//W3C//DTD SVG 1.1//EN" "http://www.w3.org/Graphics/SVG/1.1/DTD/svg11.dtd">
<svg version="1.1" xmlns="http://www.w3.org/2000/svg" xmlns:xlink="http://www.w3.org/1999/xlink" x="0px" y="0px" width="60px"
	 height="60px" viewBox="0 0 60 60" enable-background="new 0 0 60 60" xml:space="preserve">
<g id="Layer_3" display="none">
	<g display="inline">
		<path fill="none" stroke="#000000" stroke-width="3" stroke-linecap="round" stroke-miterlimit="10" d="M26.158,29.922"/>
		<path fill="none" stroke="#000000" stroke-width="3" stroke-linecap="round" stroke-miterlimit="10" d="M26.158,29.922h-1.583
			c-2.411,0-4.365-1.733-4.365-3.872V9.591c0-2.139,1.955-3.873,4.365-3.873h18.551c2.41,0,4.364,1.734,4.364,3.873V26.05
			c0,2.139-1.954,3.872-4.364,3.872h-1.79"/>
		
			<line fill="none" stroke="#000000" stroke-width="3" stroke-linecap="round" stroke-miterlimit="10" x1="33.849" y1="21.922" x2="33.849" y2="42.023"/>
		
			<line fill="none" stroke="#000000" stroke-width="3" stroke-linecap="round" stroke-miterlimit="10" x1="28.163" y1="36.338" x2="33.849" y2="42.023"/>
		
			<line fill="none" stroke="#000000" stroke-width="3" stroke-linecap="round" stroke-miterlimit="10" x1="39.535" y1="36.338" x2="33.849" y2="42.023"/>
	</g>
</g>
<g id="Layer_3_copy">
	<g>
		<path d="M44.084,0H15.917c-4.91,0-8.906,3.66-8.906,8.158v24.991c0,4.498,3.996,8.156,8.906,8.156h2.403
			c1.259,0,2.278-1.02,2.278-2.277s-1.019-2.277-2.278-2.277h-2.403c-2.399,0-4.351-1.616-4.351-3.602V8.158
			c0-1.986,1.951-3.603,4.351-3.603h28.167c2.397,0,4.35,1.616,4.35,3.603v24.991c0,1.985-1.952,3.602-4.35,3.602h-2.718
			c-1.258,0-2.277,1.02-2.277,2.277s1.02,2.277,2.277,2.277h2.718c4.909,0,8.904-3.658,8.904-8.156V8.158
			C52.988,3.66,48.993,0,44.084,0z"/>
		<path d="M37.023,47.159l-4.747,4.745V26.88c0-1.258-1.02-2.278-2.277-2.278s-2.277,1.02-2.277,2.278v25.024l-4.745-4.745
			c-0.89-0.89-2.334-0.89-3.221,0c-0.89,0.89-0.89,2.331,0,3.221l8.633,8.633c0.211,0.21,0.464,0.379,0.744,0.495
			c0.012,0.004,0.023,0.006,0.036,0.01c0.258,0.102,0.536,0.162,0.83,0.162s0.572-0.061,0.83-0.162
			c0.012-0.004,0.024-0.006,0.036-0.01c0.28-0.116,0.533-0.285,0.744-0.495l8.634-8.633c0.891-0.89,0.891-2.331,0-3.221
			C39.354,46.27,37.913,46.27,37.023,47.159z"/>
	</g>
</g>
<g id="Layer_5" display="none">
	<g display="inline">
		<path fill="none" stroke="#000000" stroke-width="3" stroke-miterlimit="10" d="M37.295,32"/>
		<path fill="none" stroke="#000000" stroke-width="3" stroke-miterlimit="10" d="M58.982,31.999c0,0-9.103,13.165-21.688,12.892
			c-12.584-0.273-21.687-12.892-21.687-12.892s9.102-13.163,21.687-12.89C49.88,19.381,58.982,31.999,58.982,31.999z"/>
		<g>
			<path d="M37.296,26.492c3.036,0,5.506,2.471,5.506,5.508c0,3.036-2.47,5.506-5.506,5.506c-3.037,0-5.509-2.47-5.509-5.506
				C31.787,28.963,34.259,26.492,37.296,26.492 M37.296,23.492c-4.7,0-8.508,3.809-8.508,8.508s3.808,8.506,8.508,8.506
				c4.697,0,8.506-3.807,8.506-8.506S41.993,23.492,37.296,23.492L37.296,23.492z"/>
		</g>
	</g>
</g>
<g id="Layer_5_copy" display="none">
	<g display="inline">
		<g>
			<path fill="none" stroke="#000000" stroke-width="3" stroke-miterlimit="10" d="M30.144,28.125"/>
		</g>
		<g>
			<path d="M30.634,46.395l-0.532-0.005C13.374,46.025,1.569,29.923,1.075,29.238l-0.787-1.091l0.765-1.107
				c0.485-0.702,12.076-17.186,28.6-17.186l0.532,0.006c16.73,0.362,28.536,16.464,29.03,17.149L60,28.101l-0.765,1.106
				C58.751,29.909,47.16,46.395,30.634,46.395z M5.021,28.099c2.88,3.497,12.709,14.212,25.163,14.483l0.45,0.005
				c12.204,0,21.818-10.884,24.633-14.439c-2.883-3.498-12.712-14.211-25.165-14.48l-0.45-0.005
				C17.417,13.662,7.828,24.543,5.021,28.099z"/>
		</g>
		<g>
			<path d="M30.146,21.135c3.854,0,6.988,3.136,6.988,6.99c0,3.854-3.135,6.988-6.988,6.988c-3.854,0-6.992-3.135-6.992-6.988
				C23.154,24.271,26.291,21.135,30.146,21.135 M30.146,17.327c-5.965,0-10.799,4.834-10.799,10.798s4.833,10.796,10.799,10.796
				c5.962,0,10.796-4.832,10.796-10.796S36.107,17.327,30.146,17.327L30.146,17.327z"/>
		</g>
	</g>
</g>
<g id="Layer_6" display="none">
	<g display="inline">
		
			<line fill="none" stroke="#000000" stroke-width="3" stroke-linecap="round" stroke-miterlimit="10" x1="56.333" y1="18.125" x2="35.807" y2="18.125"/>
		
			<line fill="none" stroke="#000000" stroke-width="3" stroke-linecap="round" stroke-miterlimit="10" x1="56.333" y1="25.865" x2="44.205" y2="25.865"/>
		
			<line fill="none" stroke="#000000" stroke-width="3" stroke-linecap="round" stroke-miterlimit="10" x1="56.333" y1="33.605" x2="39.259" y2="33.605"/>
	</g>
</g>
<g id="Layer_6_copy" display="none">
	<g display="inline">
		<g>
			<path d="M56.188,20.267H4.03c-2.104,0-3.812-1.706-3.812-3.812s1.708-3.811,3.812-3.811h52.159c2.104,0,3.812,1.705,3.812,3.811
				S58.293,20.267,56.188,20.267z"/>
		</g>
		<g>
			<path d="M56.188,39.936H25.37c-2.103,0-3.812-1.707-3.812-3.813c0-2.104,1.709-3.812,3.812-3.812h30.818
				c2.104,0,3.812,1.707,3.812,3.812C60,38.229,58.293,39.936,56.188,39.936z"/>
		</g>
		<g>
			<path d="M56.188,59.603H12.801c-2.104,0-3.811-1.706-3.811-3.813c0-2.104,1.707-3.812,3.811-3.812h43.387
				c2.104,0,3.812,1.708,3.812,3.812C60,57.896,58.293,59.603,56.188,59.603z"/>
		</g>
	</g>
</g>
</svg>
