<?xml version="1.0" encoding="utf-8"?>
<!-- Generator: Adobe Illustrator 16.0.0, SVG Export Plug-In . SVG Version: 6.00 Build 0)  -->
<!DOCTYPE svg PUBLIC "-//W3C//DTD SVG 1.1//EN" "http://www.w3.org/Graphics/SVG/1.1/DTD/svg11.dtd">
<svg version="1.1" xmlns="http://www.w3.org/2000/svg" xmlns:xlink="http://www.w3.org/1999/xlink" x="0px" y="0px" width="60px"
	 height="60px" viewBox="0 0 60 60" enable-background="new 0 0 60 60" xml:space="preserve">
<g id="Layer_3" display="none">
	<g display="inline">
		<path fill="none" stroke="#000000" stroke-width="3" stroke-linecap="round" stroke-miterlimit="10" d="M26.158,29.922"/>
		<path fill="none" stroke="#000000" stroke-width="3" stroke-linecap="round" stroke-miterlimit="10" d="M26.158,29.922h-1.583
			c-2.411,0-4.365-1.733-4.365-3.872V9.591c0-2.139,1.955-3.873,4.365-3.873h18.551c2.41,0,4.364,1.734,4.364,3.873V26.05
			c0,2.139-1.954,3.872-4.364,3.872h-1.79"/>
		
			<line fill="none" stroke="#000000" stroke-width="3" stroke-linecap="round" stroke-miterlimit="10" x1="33.849" y1="21.922" x2="33.849" y2="42.023"/>
		
			<line fill="none" stroke="#000000" stroke-width="3" stroke-linecap="round" stroke-miterlimit="10" x1="28.163" y1="36.338" x2="33.849" y2="42.023"/>
		
			<line fill="none" stroke="#000000" stroke-width="3" stroke-linecap="round" stroke-miterlimit="10" x1="39.535" y1="36.338" x2="33.849" y2="42.023"/>
	</g>
</g>
<g id="Layer_3_copy" display="none">
	<g display="inline">
		<path d="M44.084,0H15.917c-4.91,0-8.906,3.66-8.906,8.158v24.991c0,4.498,3.996,8.156,8.906,8.156h2.403
			c1.259,0,2.278-1.02,2.278-2.277s-1.019-2.277-2.278-2.277h-2.403c-2.399,0-4.351-1.616-4.351-3.602V8.158
			c0-1.986,1.951-3.603,4.351-3.603h28.167c2.397,0,4.35,1.616,4.35,3.603v24.991c0,1.985-1.952,3.602-4.35,3.602h-2.718
			c-1.258,0-2.277,1.02-2.277,2.277s1.02,2.277,2.277,2.277h2.718c4.909,0,8.904-3.658,8.904-8.156V8.158
			C52.988,3.66,48.993,0,44.084,0z"/>
		<path d="M37.023,47.159l-4.747,4.745V26.88c0-1.258-1.02-2.278-2.277-2.278s-2.277,1.02-2.277,2.278v25.024l-4.745-4.745
			c-0.89-0.89-2.334-0.89-3.221,0c-0.89,0.89-0.89,2.331,0,3.221l8.633,8.633c0.211,0.21,0.464,0.379,0.744,0.495
			c0.012,0.004,0.023,0.006,0.036,0.01c0.258,0.102,0.536,0.162,0.83,0.162s0.572-0.061,0.83-0.162
			c0.012-0.004,0.024-0.006,0.036-0.01c0.28-0.116,0.533-0.285,0.744-0.495l8.634-8.633c0.891-0.89,0.891-2.331,0-3.221
			C39.354,46.27,37.913,46.27,37.023,47.159z"/>
	</g>
</g>
<g id="Layer_5" display="none">
	<g display="inline">
		<path fill="none" stroke="#000000" stroke-width="3" stroke-miterlimit="10" d="M38.475,32.701"/>
		<path d="M58.982,32.7c0,0-8.607,12.449-20.509,12.19c-11.9-0.259-20.508-12.19-20.508-12.19s8.607-12.447,20.508-12.189
			C50.375,20.769,58.982,32.7,58.982,32.7z"/>
		<g>
			<path fill="#FFFFFF" d="M38.475,27.656c2.781,0,5.044,2.263,5.044,5.045c0,2.78-2.263,5.043-5.044,5.043
				c-2.782,0-5.046-2.263-5.046-5.043C33.429,29.919,35.692,27.656,38.475,27.656 M38.475,24.656c-4.444,0-8.045,3.602-8.045,8.045
				c0,4.443,3.601,8.043,8.045,8.043c4.442,0,8.044-3.6,8.044-8.043C46.519,28.257,42.917,24.656,38.475,24.656L38.475,24.656z"/>
		</g>
	</g>
</g>
<g id="Layer_5_copy">
	<g>
		<g>
			<path fill="none" stroke="#000000" stroke-width="3" stroke-miterlimit="10" d="M30.056,30.002"/>
		</g>
		<g>
			<path d="M37.423,30c0,4.06-3.3,7.361-7.374,7.361c-4.059,0-7.36-3.301-7.36-7.361c0-4.06,3.301-7.359,7.36-7.359
				C34.123,22.641,37.423,25.941,37.423,30z"/>
			<path d="M30.049,12.2C12.672,11.82,0.115,30,0.115,30s12.558,17.421,29.935,17.8C47.441,48.182,60,30,60,30
				S47.441,12.58,30.049,12.2z M30.049,41.74c-6.483,0-11.741-5.256-11.741-11.74s5.258-11.74,11.741-11.74
				c6.499,0,11.754,5.256,11.754,11.74S36.548,41.74,30.049,41.74z"/>
		</g>
	</g>
</g>
<g id="Layer_6" display="none">
	<g display="inline">
		
			<line fill="none" stroke="#000000" stroke-width="3" stroke-linecap="round" stroke-miterlimit="10" x1="56.333" y1="14.688" x2="31.25" y2="14.688"/>
		
			<line fill="none" stroke="#000000" stroke-width="3" stroke-linecap="round" stroke-miterlimit="10" x1="56.333" y1="24.147" x2="41.513" y2="24.147"/>
		
			<line fill="none" stroke="#000000" stroke-width="3" stroke-linecap="round" stroke-miterlimit="10" x1="56.333" y1="33.605" x2="35.469" y2="33.605"/>
	</g>
</g>
<g id="Layer_6_copy" display="none">
	<g display="inline">
		<g>
			<path d="M52.626,18.601H7.373c-1.495,0-2.706-1.211-2.706-2.707c0-1.495,1.211-2.706,2.706-2.706h45.253
				c1.495,0,2.707,1.211,2.707,2.706C55.333,17.39,54.121,18.601,52.626,18.601z"/>
		</g>
		<g>
			<path d="M52.626,35.666H25.888c-1.494,0-2.706-1.211-2.706-2.707c0-1.494,1.212-2.706,2.706-2.706h26.738
				c1.495,0,2.707,1.211,2.707,2.706C55.333,34.455,54.121,35.666,52.626,35.666z"/>
		</g>
		<g>
			<path d="M52.626,52.73H14.984c-1.494,0-2.706-1.212-2.706-2.707c0-1.493,1.212-2.705,2.706-2.705h37.642
				c1.495,0,2.707,1.212,2.707,2.705C55.333,51.519,54.121,52.73,52.626,52.73z"/>
		</g>
	</g>
</g>
</svg>
